<svg xmlns="http://www.w3.org/2000/svg" width="375" viewBox="0 0 375 375" height="375" version="1.0"><path fill="#5E17EB" d="M 222.066406 214.351562 L 222.066406 216.28125 L 300.839844 216.28125 L 300.839844 170.523438 L 298.90625 168.59375 L 298.90625 214.351562 L 222.066406 214.351562"/><path fill="#8C52FF" d="M 289.109375 158.636719 L 219.011719 158.679688 L 219.011719 213.90625 L 298.636719 213.90625 L 298.679688 168.054688 L 289.109375 158.636719"/><path d="M 298.90625 167.964844 L 298.859375 167.921875 L 294.050781 163.121094 L 291.671875 160.742188 L 289.152344 158.230469 L 218.789062 158.230469 L 218.789062 214.351562 L 221.617188 214.351562 L 221.617188 216.730469 L 301.289062 216.730469 L 301.289062 170.34375 L 298.90625 167.964844 M 289.289062 158.992188 L 293.738281 163.390625 L 298.140625 167.785156 L 289.289062 167.785156 L 289.289062 158.992188 M 219.238281 213.90625 L 219.238281 158.679688 L 288.839844 158.679688 L 288.839844 168.054688 C 288.839844 168.191406 288.929688 168.28125 289.0625 168.28125 L 298.457031 168.28125 L 298.457031 213.90625 L 219.238281 213.90625 M 300.839844 216.28125 L 222.066406 216.28125 L 222.066406 214.351562 L 298.90625 214.351562 L 298.90625 168.59375 L 300.839844 170.523438 L 300.839844 216.28125"/><g><g><g><path d="M 15.09375 -14.09375 L 20.484375 -25.984375 L 16.640625 -25.984375 L 16.640625 -26.59375 L 24.125 -26.59375 L 24.125 -25.984375 L 21.625 -25.984375 L 15.890625 -13.296875 L 15.890625 -0.71875 L 18.203125 -0.71875 L 18.203125 0 L 6.15625 0 L 6.15625 -0.71875 L 8.46875 -0.71875 L 8.46875 -12.578125 L 2.015625 -25.984375 L 0.234375 -25.984375 L 0.234375 -26.59375 L 12.390625 -26.59375 L 12.390625 -25.984375 L 9.921875 -25.984375 Z M 15.09375 -14.09375" transform="translate(82.43 201.75)"/></g></g></g><g><g><g><path d="M 9.5 -8.9375 L 10.609375 -8.9375 L 10.609375 -11.859375 C 10.609375 -14.265625 10.472656 -15.878906 10.203125 -16.703125 C 9.929688 -17.523438 9.414062 -17.9375 8.65625 -17.9375 C 8.207031 -17.9375 7.796875 -17.816406 7.421875 -17.578125 C 7.054688 -17.335938 6.875 -17.003906 6.875 -16.578125 C 6.875 -16.160156 6.953125 -15.738281 7.109375 -15.3125 L 8.0625 -15.3125 C 8.257812 -14.78125 8.359375 -14.140625 8.359375 -13.390625 C 8.359375 -12.648438 8.039062 -12.003906 7.40625 -11.453125 C 6.769531 -10.910156 5.972656 -10.640625 5.015625 -10.640625 C 2.835938 -10.640625 1.75 -11.691406 1.75 -13.796875 C 1.75 -16.910156 4.394531 -18.46875 9.6875 -18.46875 C 12.707031 -18.46875 14.789062 -17.953125 15.9375 -16.921875 C 17.09375 -15.898438 17.671875 -14.019531 17.671875 -11.28125 L 17.671875 -3.578125 C 17.671875 -2.253906 18.035156 -1.59375 18.765625 -1.59375 C 19.628906 -1.59375 20.140625 -2.898438 20.296875 -5.515625 L 20.859375 -5.46875 C 20.753906 -3.238281 20.332031 -1.707031 19.59375 -0.875 C 18.863281 -0.0390625 17.664062 0.375 16 0.375 C 12.957031 0.375 11.207031 -0.5625 10.75 -2.4375 C 10.425781 -1.46875 9.929688 -0.753906 9.265625 -0.296875 C 8.609375 0.148438 7.648438 0.375 6.390625 0.375 C 2.640625 0.375 0.765625 -1.15625 0.765625 -4.21875 C 0.765625 -6.019531 1.476562 -7.253906 2.90625 -7.921875 C 4.332031 -8.597656 6.53125 -8.9375 9.5 -8.9375 Z M 7.984375 -4.25 C 7.984375 -2.9375 8.050781 -2.085938 8.1875 -1.703125 C 8.320312 -1.328125 8.585938 -1.140625 8.984375 -1.140625 C 9.378906 -1.140625 9.75 -1.460938 10.09375 -2.109375 C 10.4375 -2.753906 10.609375 -3.644531 10.609375 -4.78125 L 10.609375 -8.328125 L 10.34375 -8.328125 C 8.769531 -8.328125 7.984375 -7.171875 7.984375 -4.859375 Z M 7.984375 -4.25" transform="translate(106.784 201.75)"/></g></g></g><g><g><g><path d="M 18.046875 -18.09375 L 18.046875 -17.40625 L 9.046875 -0.6875 L 9.53125 -0.6875 C 11.664062 -0.6875 13.335938 -1.242188 14.546875 -2.359375 C 15.765625 -3.472656 16.71875 -5.285156 17.40625 -7.796875 L 17.9375 -7.796875 L 17.328125 0 L 1.375 0 L 1.375 -0.5625 L 10.53125 -17.40625 L 10.109375 -17.40625 C 7.546875 -17.40625 5.765625 -16.984375 4.765625 -16.140625 C 3.765625 -15.304688 2.875 -13.523438 2.09375 -10.796875 L 1.59375 -10.796875 L 2.09375 -18.09375 Z M 18.046875 -18.09375" transform="translate(127.642 201.75)"/></g></g></g><g><g><g><path d="M 5.96875 -20.703125 C 4.625 -20.703125 3.664062 -21.046875 3.09375 -21.734375 C 2.519531 -22.421875 2.234375 -23.269531 2.234375 -24.28125 C 2.234375 -25.289062 2.546875 -26.125 3.171875 -26.78125 C 3.796875 -27.445312 4.738281 -27.78125 6 -27.78125 C 7.269531 -27.78125 8.234375 -27.476562 8.890625 -26.875 C 9.546875 -26.28125 9.875 -25.429688 9.875 -24.328125 C 9.875 -23.234375 9.554688 -22.351562 8.921875 -21.6875 C 8.296875 -21.03125 7.3125 -20.703125 5.96875 -20.703125 Z M 0.234375 -18.09375 L 9.53125 -18.09375 L 9.53125 -0.6875 L 11.671875 -0.6875 L 11.671875 0 L 0.375 0 L 0.375 -0.6875 L 2.46875 -0.6875 L 2.46875 -17.40625 L 0.234375 -17.40625 Z M 0.234375 -18.09375" transform="translate(147.397 201.75)"/></g></g></g><g><g><g><path d="M 0.234375 -28.5 L 9.53125 -28.5 L 9.53125 -0.6875 L 11.671875 -0.6875 L 11.671875 0 L 0.375 0 L 0.375 -0.6875 L 2.46875 -0.6875 L 2.46875 -27.8125 L 0.234375 -27.8125 Z M 0.234375 -28.5" transform="translate(159.441 201.75)"/></g></g></g><g><g><g><path d="M 5.96875 -20.703125 C 4.625 -20.703125 3.664062 -21.046875 3.09375 -21.734375 C 2.519531 -22.421875 2.234375 -23.269531 2.234375 -24.28125 C 2.234375 -25.289062 2.546875 -26.125 3.171875 -26.78125 C 3.796875 -27.445312 4.738281 -27.78125 6 -27.78125 C 7.269531 -27.78125 8.234375 -27.476562 8.890625 -26.875 C 9.546875 -26.28125 9.875 -25.429688 9.875 -24.328125 C 9.875 -23.234375 9.554688 -22.351562 8.921875 -21.6875 C 8.296875 -21.03125 7.3125 -20.703125 5.96875 -20.703125 Z M 0.234375 -18.09375 L 9.53125 -18.09375 L 9.53125 -0.6875 L 11.671875 -0.6875 L 11.671875 0 L 0.375 0 L 0.375 -0.6875 L 2.46875 -0.6875 L 2.46875 -17.40625 L 0.234375 -17.40625 Z M 0.234375 -18.09375" transform="translate(171.447 201.75)"/></g></g></g><g><g><g><path d="M 0.375 -18.09375 L 9.53125 -18.09375 L 9.53125 -14.59375 C 10.375 -17.175781 12.21875 -18.46875 15.0625 -18.46875 C 17.914062 -18.46875 19.644531 -17.097656 20.25 -14.359375 C 21.132812 -17.097656 23 -18.46875 25.84375 -18.46875 C 29.5625 -18.46875 31.421875 -16.351562 31.421875 -12.125 L 31.421875 -0.6875 L 33.546875 -0.6875 L 33.546875 0 L 23.03125 0 L 23.03125 -0.6875 L 24.359375 -0.6875 L 24.359375 -13.03125 C 24.359375 -14.957031 24.191406 -16.085938 23.859375 -16.421875 C 23.710938 -16.566406 23.507812 -16.640625 23.25 -16.640625 C 22.519531 -16.640625 21.875 -16.144531 21.3125 -15.15625 C 20.757812 -14.175781 20.484375 -12.925781 20.484375 -11.40625 L 20.484375 -0.6875 L 21.84375 -0.6875 L 21.84375 0 L 12.078125 0 L 12.078125 -0.6875 L 13.40625 -0.6875 L 13.40625 -13.03125 C 13.40625 -14.957031 13.242188 -16.085938 12.921875 -16.421875 C 12.765625 -16.566406 12.5625 -16.640625 12.3125 -16.640625 C 11.601562 -16.640625 10.960938 -16.097656 10.390625 -15.015625 C 9.816406 -13.941406 9.53125 -12.660156 9.53125 -11.171875 L 9.53125 -0.6875 L 10.90625 -0.6875 L 10.90625 0 L 0.375 0 L 0.375 -0.6875 L 2.46875 -0.6875 L 2.46875 -17.40625 L 0.375 -17.40625 Z M 0.375 -18.09375" transform="translate(183.49 201.75)"/></g></g></g><g><g><g><path d="M 27.125 -13.75 C 27.125 -8.53125 25.65625 -4.894531 22.71875 -2.84375 C 20.007812 -0.945312 16.285156 0 11.546875 0 L 0.796875 0 L 0.796875 -0.71875 L 3.3125 -0.71875 L 3.3125 -25.875 L 0.796875 -25.875 L 0.796875 -26.59375 L 12.546875 -26.59375 C 17.410156 -26.59375 21.054688 -25.597656 23.484375 -23.609375 C 25.910156 -21.628906 27.125 -18.34375 27.125 -13.75 Z M 10.71875 -0.71875 L 12.15625 -0.71875 C 14.71875 -0.71875 16.546875 -1.625 17.640625 -3.4375 C 18.742188 -5.25 19.296875 -8.285156 19.296875 -12.546875 L 19.296875 -14.75 C 19.296875 -20.445312 18.207031 -23.878906 16.03125 -25.046875 C 15 -25.597656 13.53125 -25.875 11.625 -25.875 L 10.71875 -25.875 Z M 10.71875 -0.71875" transform="translate(224.066 201.75)"/></g></g></g><g><g><g><path d="M 10.375 0.375 C 7.101562 0.375 4.648438 -0.460938 3.015625 -2.140625 C 1.378906 -3.828125 0.5625 -6.171875 0.5625 -9.171875 C 0.5625 -12.179688 1.476562 -14.484375 3.3125 -16.078125 C 5.15625 -17.671875 7.5 -18.46875 10.34375 -18.46875 C 16.09375 -18.46875 18.851562 -15.578125 18.625 -9.796875 L 7.90625 -9.796875 L 7.90625 -8.328125 C 7.90625 -5.835938 8.21875 -3.957031 8.84375 -2.6875 C 9.476562 -1.425781 10.582031 -0.796875 12.15625 -0.796875 C 15.09375 -0.796875 17.019531 -2.367188 17.9375 -5.515625 L 18.625 -5.390625 C 18.132812 -3.566406 17.265625 -2.148438 16.015625 -1.140625 C 14.765625 -0.128906 12.882812 0.375 10.375 0.375 Z M 7.9375 -10.5625 L 11.859375 -10.5625 L 11.859375 -12.421875 C 11.859375 -14.472656 11.738281 -15.875 11.5 -16.625 C 11.257812 -17.375 10.773438 -17.75 10.046875 -17.75 C 9.328125 -17.75 8.796875 -17.347656 8.453125 -16.546875 C 8.109375 -15.753906 7.9375 -14.378906 7.9375 -12.421875 Z M 7.9375 -10.5625" transform="translate(252.75 201.75)"/></g></g></g><g><g><g><path d="M 0 -17.40625 L 0 -18.09375 L 11.359375 -18.09375 L 11.359375 -17.40625 L 8.96875 -17.40625 L 13.53125 -4.78125 L 17.625 -17.40625 L 15.09375 -17.40625 L 15.09375 -18.09375 L 20.21875 -18.09375 L 20.21875 -17.40625 L 18.546875 -17.40625 L 12.921875 0 L 8.59375 0 L 1.5625 -17.40625 Z M 0 -17.40625" transform="translate(272.354 201.75)"/></g></g></g></svg>